<?xml version="1.0" standalone="no"?><!DOCTYPE svg PUBLIC "-//W3C//DTD SVG 1.1//EN" "http://www.w3.org/Graphics/SVG/1.1/DTD/svg11.dtd"><svg t="1544199381670" class="icon" style="" viewBox="0 0 1266 1024" version="1.1" xmlns="http://www.w3.org/2000/svg" p-id="13387" xmlns:xlink="http://www.w3.org/1999/xlink" width="247.265625" height="200"><defs><style type="text/css"></style></defs><path d="M632.232315 733.422361a142.252271 142.252271 0 0 0-62.338106 14.035558 149.08038 149.08038 0 0 0-71.442252 73.844734 151.735756 151.735756 0 0 0-11.127289 56.521569A145.286986 145.286986 0 1 0 632.232315 733.422361z m0 219.637506a74.982753 74.982753 0 1 1 75.867878-75.235645 75.867878 75.867878 0 0 1-75.867878 75.235645zM354.050096 695.488422a25.289293 25.289293 0 0 0 16.058701 6.954556l170.829172-177.025048a362.648456 362.648456 0 0 0-191.819285 121.388604A35.152117 35.152117 0 0 0 354.050096 695.488422z m415.123738-156.414274L716.06632 594.331252a290.826865 290.826865 0 0 1 145.034093 96.857991 34.899224 34.899224 0 0 0 27.312436 12.644646A36.037242 36.037242 0 0 0 910.414533 695.488422a34.393438 34.393438 0 0 0 4.172734-48.808334 362.774902 362.774902 0 0 0-145.792772-107.479494zM632.232315 362.554885a455.207267 455.207267 0 0 1 61.579427 4.29918l58.924052-61.326534a570.652887 570.652887 0 0 0-120.503479-12.644647 582.538855 582.538855 0 0 0-453.563463 214.958987 35.278563 35.278563 0 0 0 27.312436 57.153802 35.278563 35.278563 0 0 0 26.680204-13.276879 515.522229 515.522229 0 0 1 399.570823-189.669694z m296.137616 11.253736l-49.69346 51.590156a500.85444 500.85444 0 0 1 153.253113 126.446463 35.076249 35.076249 0 0 0 54.624872-44.003369 562.939653 562.939653 0 0 0-158.437418-134.03325z m-57.533141-191.187052L923.05918 127.617357a797.371395 797.371395 0 0 0-290.826865-54.371979A806.981327 806.981327 0 0 0 7.586788 368.244976 36.037242 36.037242 0 0 0 12.644646 417.306204a39.32485 39.32485 0 0 0 22.381024 7.586788 36.037242 36.037242 0 0 0 27.312436-12.644647A732.50436 732.50436 0 0 1 632.232315 142.917379a721.503518 721.503518 0 0 1 238.730922 39.70419z m385.661712 185.623407a757.16142 757.16142 0 0 0-172.220082-156.287828l-48.934781 50.578585a696.087779 696.087779 0 0 1 167.28867 150.344845 34.924513 34.924513 0 1 0 53.739747-44.635602zM1157.617368 9.769254a34.899224 34.899224 0 0 0-49.440567 1.011571L221.028417 933.081326a34.975092 34.975092 0 0 0 50.578585 48.302549L1158.62894 59.083374a34.646331 34.646331 0 0 0-1.011572-49.31412z" fill="#e6e6e6" p-id="13388"></path></svg>